# xmcd CD database file
#
# Track frame offsets:
#	150
#	17905
#	34470
#	56485
#	75867
#	99247
#	117729
#	136625
#	155105
#	177380
#	198465
#	217782
#	232712
#	253285
#	275900
#	294790
#	314790
#	339512
#
# Disc length: 4756 seconds
#
# Revision: 9
# Processed by: cddbd v1.5.2PL0 Copyright (c) Steve Scherf et al.
# Submitted via: CDex 1.70beta2
#
DISCID=05129212
DTITLE=Michael Jackson - Number Ones
DYEAR=2003
DGENRE=Pop
TTITLE0=Don't Stop 'Til You Get Enough
TTITLE1=Rock With You
TTITLE2=Billie Jean
TTITLE3=Beat It
TTITLE4=Thriller (2003 Edit)
TTITLE5=Human Nature
TTITLE6=I Just Can't Stop Loving You
TTITLE7=Bad
TTITLE8=The Way You Make Me Feel
TTITLE9=Dirty Diana
TTITLE10=Smooth Criminal
TTITLE11=Black Or White
TTITLE12=You Are Not Alone
TTITLE13=Earth Song
TTITLE14=Blood On The Dance Floor
TTITLE15=You Rock My World
TTITLE16=Break Of Dawn
TTITLE17=One More Chance
EXTD=YEAR: 2003
EXTT0=
EXTT1=
EXTT2=
EXTT3=
EXTT4=
EXTT5=
EXTT6=
EXTT7=
EXTT8=
EXTT9=
EXTT10=
EXTT11=
EXTT12=
EXTT13=
EXTT14=
EXTT15=
EXTT16=
EXTT17=
PLAYORDER=
